<svg preserveAspectRatio="none" width="100%" height="100%" overflow="visible" style="display: block;" viewBox="0 0 20 20" fill="none" xmlns="http://www.w3.org/2000/svg">
<g id="icon_safe_line">
<path id="Vector" d="M9.99944 19.6799C9.67544 19.6827 9.35701 19.5957 9.07944 19.4285L5.61087 17.3999C4.31236 16.6737 3.22857 15.6176 2.46902 14.3383C1.70947 13.0591 1.30109 11.6019 1.28516 10.1142V4.57138C1.28531 4.19786 1.39985 3.83335 1.61336 3.52687C1.82687 3.2204 2.12912 2.98666 2.47944 2.85709L9.37087 0.325664C9.77675 0.17709 10.2221 0.17709 10.628 0.325664L17.5194 2.85709C17.8698 2.98666 18.172 3.2204 18.3855 3.52687C18.599 3.83335 18.7136 4.19786 18.7137 4.57138V10.1142C18.6978 11.6019 18.2894 13.0591 17.5299 14.3383C16.7703 15.6176 15.6865 16.6737 14.388 17.3999L10.9194 19.4285C10.6419 19.5957 10.3234 19.6827 9.99944 19.6799ZM9.99944 1.64566C9.9541 1.63741 9.90764 1.63741 9.8623 1.64566L2.97087 4.18852C2.89325 4.21727 2.82664 4.26972 2.78048 4.33843C2.73433 4.40715 2.71098 4.48865 2.71373 4.57138V10.1142C2.7303 11.3521 3.07353 12.5636 3.7087 13.6263C4.34386 14.6889 5.24843 15.5649 6.33087 16.1657L9.79944 18.1999C9.86078 18.2335 9.92955 18.251 9.99944 18.251C10.0693 18.251 10.1381 18.2335 10.1994 18.1999L13.668 16.1657C14.7505 15.5649 15.655 14.6889 16.2902 13.6263C16.9254 12.5636 17.2686 11.3521 17.2852 10.1142V4.57138C17.2855 4.49058 17.261 4.41162 17.2151 4.34519C17.1691 4.27875 17.1038 4.22805 17.028 4.19995L10.1366 1.66852C10.0926 1.6526 10.0462 1.64485 9.99944 1.64566Z" fill="var(--fill-0, #171717)"/>
<path id="Vector_2" d="M9.37143 12.7714C9.20281 12.7703 9.03958 12.7119 8.90857 12.6057L6.46857 10.5486C6.32308 10.4266 6.23201 10.2518 6.2154 10.0626C6.19879 9.87349 6.258 9.68549 6.38 9.54C6.502 9.39451 6.6768 9.30344 6.86594 9.28683C7.05509 9.27022 7.24308 9.32943 7.38857 9.45143L9.30286 11.0629L12.5714 7.46286C12.6987 7.32191 12.8768 7.23731 13.0665 7.22767C13.2562 7.21802 13.4419 7.28412 13.5829 7.41143C13.7238 7.53873 13.8084 7.71681 13.818 7.90649C13.8277 8.09617 13.7616 8.28191 13.6343 8.42286L9.93143 12.5371C9.86053 12.6143 9.77377 12.6752 9.6771 12.7156C9.58043 12.7561 9.47615 12.7751 9.37143 12.7714Z" fill="var(--fill-0, #171717)"/>
</g>
</svg>
