<svg width="40" height="40" viewBox="0 0 40 40" fill="none" xmlns="http://www.w3.org/2000/svg">
<rect width="40" height="40" rx="20" fill="#F0F0F2"/>
<path d="M21.1842 14.1545C21.1842 14.3833 21.1842 15.1293 21.1842 16.1892H24.8281L24.433 19.4374H21.1842C21.1842 24.4469 21.1842 31.1598 21.1842 31.1598H16.872C16.872 31.1598 16.872 24.5357 16.872 19.4374H14.625V16.1892H16.872C16.872 14.901 16.872 13.985 16.872 13.7299C16.872 12.5148 16.7804 11.9382 17.2968 10.9966C17.8134 10.055 19.2705 8.81041 21.7907 8.84037C24.3116 8.87143 25.3741 9.11394 25.3741 9.11394L24.8281 12.5758C24.8281 12.5758 23.2184 12.1508 22.4283 12.3022C21.6392 12.4538 21.1842 12.9398 21.1842 14.1545Z" fill="#171717"/>
</svg>
