<svg width="36" height="36" viewBox="0 0 36 36" fill="none" xmlns="http://www.w3.org/2000/svg">
<g clip-path="url(#clip0_32_32567)">
<path d="M18 36C8.0595 36 0 27.9405 0 18C0 8.0595 8.0595 0 18 0C27.9405 0 36 8.0595 36 18C36 27.9405 27.9405 36 18 36ZM25.0575 19.1775L25.119 19.119L26.1795 18.0585L14.5605 6.4365C14.2785 6.15721 13.8976 6.00053 13.5007 6.00053C13.1039 6.00053 12.723 6.15721 12.441 6.4365C12.3012 6.57548 12.1903 6.74072 12.1146 6.92272C12.0389 7.10472 11.9999 7.29989 11.9999 7.497C11.9999 7.69411 12.0389 7.88928 12.1146 8.07128C12.1903 8.25328 12.3012 8.41852 12.441 8.5575L21.936 18.0555L12.441 27.546C12.3013 27.6849 12.1904 27.85 12.1147 28.0318C12.039 28.2137 12.0001 28.4088 12.0001 28.6058C12.0001 28.8027 12.039 28.9978 12.1147 29.1797C12.1904 29.3615 12.3013 29.5266 12.441 29.6655C13.026 30.2505 13.983 30.2445 14.5605 29.667L25.0575 19.1775Z" fill="white"/>
</g>
<defs>
<clipPath id="clip0_32_32567">
<rect width="36" height="36" fill="white"/>
</clipPath>
</defs>
</svg>
