<svg width="172" height="38" viewBox="0 0 172 38" fill="none" xmlns="http://www.w3.org/2000/svg">
<g clip-path="url(#clip0_32_32616)">
<path d="M20.2885 28.6765C18.8565 28.3265 18.7542 29.2982 17.9849 30.1976C15.0128 33.6694 11.548 35.9338 7.12808 32.9566C2.8234 30.0559 2.7773 24.956 6.06776 21.2152C8.975 17.9112 12.0537 14.8341 16.5802 17.7145C16.9361 17.9401 17.8077 18.7932 18.1635 18.6775C18.5496 18.5532 18.9616 16.591 18.9213 16.1572C18.7931 14.7561 16.3267 13.6499 15.1425 13.3014C11.7353 12.2979 8.90873 13.2956 6.40055 15.6453C1.39715 20.3361 -2.53008 25.9826 1.97629 32.7671C6.60512 39.7396 14.7391 39.5198 20.0594 33.4713C20.6054 32.8496 22.2507 30.8859 22.278 30.1369C22.2996 29.5441 20.7985 28.8023 20.287 28.6765H20.2885Z" fill="#171717"/>
<path d="M22.8553 0.556447C19.7651 1.60767 15.5958 6.35915 13.3383 8.86358C13.1799 9.03854 12.265 10.0218 12.4019 10.1534C13.5429 10.1678 14.6695 10.3457 15.7831 10.58C16.2081 10.6696 16.9947 11.0484 17.3736 10.9313C19.1845 8.84623 21.0314 5.65351 23.6347 4.51264C29.6494 1.87807 35.595 9.29448 32.9356 14.9381C32.3694 16.1383 31.2831 17.0941 30.4058 18.0629C30.3438 18.3015 30.8985 19.0013 31.0368 19.2804C31.1794 19.5667 31.6678 20.8247 31.8378 20.8565C32.113 20.9086 34.3863 18.8423 34.6932 18.4894C41.81 10.3284 32.9774 -2.88787 22.8567 0.556447H22.8553Z" fill="#171717"/>
<path d="M28.0194 10.8952C27.714 10.7289 26.6133 10.3833 26.5571 10.3284C26.3094 10.0869 26.5053 9.09207 26.4333 8.71612C26.3094 8.06977 24.6814 8.08567 24.2204 8.37631C23.7205 8.69154 24.1757 9.93363 24.0158 10.2532C23.8876 10.5077 23.2264 10.5525 22.9483 10.6725C19.7832 12.0231 19.4129 16.1687 21.9398 18.3854C23.2307 19.519 25.9132 20.1654 26.6753 21.5709C27.2429 22.6177 26.8251 23.9712 25.7749 24.5221C24.1109 25.3969 22.4671 24.6913 21.3521 23.3407C21.1403 23.0833 20.9213 22.4283 20.5511 22.4601C20.4459 22.4688 18.9447 23.5649 18.854 23.6762C18.5644 24.029 18.9634 24.4932 19.1781 24.8286C19.7443 25.7179 20.626 26.5551 21.6229 26.9383C21.9038 27.0453 22.787 27.1899 22.8547 27.2391C23.1414 27.4444 22.8359 29.3676 23.0405 29.8736C23.1889 30.2395 24.9681 30.3624 25.2562 29.9532C25.5386 29.5526 25.1986 27.9751 25.396 27.4155C25.4983 27.2087 26.1955 27.1379 26.4866 27.0222C29.4918 25.8133 30.6558 22.0827 28.5078 19.532C27.2804 18.073 25.7907 17.7564 24.291 16.8194C20.8594 14.675 24.4581 11.235 27.0743 13.43C27.5109 13.7958 27.6823 14.5 28.309 14.2672C28.4905 14.1993 29.7828 13.2738 29.8476 13.1249C30.1213 12.506 28.5395 11.1801 28.018 10.8938L28.0194 10.8952Z" fill="#171717"/>
<path d="M14.0491 19.9965C13.8589 20.0398 13.4814 20.3261 13.3316 20.4693C12.4759 21.2834 11.489 22.6267 10.6678 23.5507C9.69828 24.6424 7.93348 25.8194 9.23583 27.4664C10.5987 29.19 12.0581 27.3637 13.0392 26.3298C13.6759 25.6603 15.9738 23.1762 16.2417 22.4994C16.6682 21.4121 15.144 19.755 14.0491 19.9994V19.9965Z" fill="#171717"/>
<path d="M85.8492 13.5108V25.5847L85.2672 25.3736C82.7821 21.8556 80.4194 18.1987 77.8406 14.7529C77.6332 14.4753 76.7817 13.2939 76.557 13.2939H74.0359V31.3687H76.9892C77.0051 31.3687 77.2053 31.1677 77.2053 31.1518V19.5839C77.2053 19.5189 77.4603 19.2543 77.5583 19.5189L85.6994 31.1156C85.7686 31.1995 85.989 31.3687 86.0653 31.3687H88.8026C88.8184 31.3687 89.0187 31.1677 89.0187 31.1518V13.2939H86.0653C86.0495 13.2939 85.8492 13.4949 85.8492 13.5108Z" fill="#171717"/>
<path d="M100.945 13.1915C93.8425 13.8813 90.0982 22.2217 94.2891 28.0301C96.6489 31.3024 100.969 32.6283 104.794 31.3703C115.497 27.8508 112.548 12.0666 100.945 13.1915ZM103.048 28.6056C94.2099 29.6453 93.6956 17.126 101.232 16.2266C109.51 15.2376 110.491 27.7308 103.048 28.6056Z" fill="#171717"/>
<path d="M149.743 13.2941C149.727 13.2941 149.526 13.4951 149.526 13.511V25.4403C149.175 25.4056 148.825 24.846 148.603 24.5597C146.049 21.2672 143.87 17.3761 141.228 14.1776C140.946 13.8363 140.685 13.362 140.234 13.2941C139.648 13.2059 138.713 13.2941 138.073 13.2941C138.057 13.2941 137.857 13.4951 137.857 13.511V31.1519C137.857 31.1678 138.057 31.3688 138.073 31.3688H140.81C140.826 31.3688 141.027 31.1678 141.027 31.1519V19.7287C141.027 19.681 141.27 19.4554 141.385 19.5118C143.976 22.9951 146.286 26.7243 148.891 30.199C149.034 30.3913 149.77 31.3688 149.887 31.3688H152.336C152.98 31.3688 152.555 29.638 152.546 29.2779C152.509 27.7206 152.686 26.1821 152.703 24.6522C152.745 20.8609 152.579 17.0811 152.552 13.2941H149.743Z" fill="#171717"/>
<path d="M163.935 21.3235L171.856 13.2939H168.038C167.442 13.2939 166.428 14.7949 166.027 15.1795C165.154 16.0196 164.156 16.7889 163.28 17.6275C162.533 18.3433 161.565 19.6505 160.838 20.2375C160.64 20.398 160.299 20.5036 160.043 20.5238V13.2939H157.017V31.3687H160.043V24.6449C160.043 24.5162 161.149 23.1512 161.482 23.3348L168.038 31.3687H172L163.935 21.3235Z" fill="#171717"/>
<path d="M62.5821 13.2944H51.417L51.489 31.3691H54.3703C54.3862 31.3691 54.5864 31.1681 54.5864 31.1522V24.3562C54.5864 24.3402 54.7867 24.1393 54.8025 24.1393H61.5736C61.9986 24.1393 61.7292 21.658 61.6456 21.2473H54.8025C54.7867 21.2473 54.5864 21.0463 54.5864 21.0304V16.5479C54.5864 16.532 54.7867 16.331 54.8025 16.331H62.438C62.4855 16.331 62.657 16.1401 62.7982 16.1864V13.5113C62.7982 13.4954 62.5979 13.2944 62.5821 13.2944Z" fill="#171717"/>
<path d="M124.825 28.3384C122.814 28.3818 120.755 28.3298 118.784 28.3182C118.635 28.3167 118.035 28.1967 117.96 28.0969C117.674 26.6004 118.467 13.5042 117.76 13.2945C117.135 13.1094 115.683 13.4304 114.951 13.2945C114.857 18.7603 115.075 24.2449 114.957 29.7121C114.951 30.0158 114.572 31.3692 115.167 31.3692H126.26C126.276 31.3692 126.476 31.1682 126.476 31.1523V28.3326C125.871 28.0261 125.393 28.3269 124.825 28.3384Z" fill="#171717"/>
<path d="M130.293 13.2939V31.3687H133.03C133.082 31.3687 133.263 31.2212 133.367 31.1995L133.4 31.0115L133.03 13.2939H130.293Z" fill="#171717"/>
<path d="M69.6394 13.2939H67.1902L67.0462 31.3687H69.6394C69.6869 31.3687 69.8583 31.1778 69.9995 31.2241V13.4385C69.8583 13.4848 69.6869 13.2939 69.6394 13.2939Z" fill="#171717"/>
</g>
<defs>
<clipPath id="clip0_32_32616">
<rect width="172" height="38.0089" fill="white" transform="translate(0 -0.00439453)"/>
</clipPath>
</defs>
</svg>
