<svg width="108" height="56" viewBox="0 0 108 56" fill="none" xmlns="http://www.w3.org/2000/svg">
<path d="M71.7377 19.3906H76.1507V25.1976H80.9579V19.3906H85.4121V26.5656L90.4141 19.3906H95.0387L89.9138 26.8164L95.2274 35.4732H89.9669L85.4121 27.8978V35.4732H80.9579V29.3198H76.1507V35.4732H71.7377V19.3906Z" fill="#003A5D"/>
<path d="M84.9404 27.2348L90.4067 19.3906H95.0379L89.9125 26.8164L95.2262 35.4732H89.9656L84.9404 27.2348Z" fill="#003A5D"/>
<path d="M16.776 22.6828V26.8347H21.7127V28.8419H16.776V35.4735H14.5283V20.6753H22.0897V22.6828H16.776Z" fill="#017CBA"/>
<path d="M24.4514 23.2019C24.2776 23.2062 24.1046 23.1753 23.9431 23.1107C23.7812 23.0459 23.6342 22.949 23.5095 22.8257C23.3844 22.7077 23.2852 22.5643 23.2181 22.4048C23.1514 22.2451 23.1185 22.0731 23.1215 21.8996C23.118 21.7227 23.1505 21.5468 23.2172 21.3832C23.2844 21.2196 23.384 21.0722 23.5095 20.9497C23.7649 20.7021 24.1042 20.564 24.4571 20.564C24.8099 20.564 25.1492 20.7021 25.4046 20.9497C25.5302 21.0711 25.6293 21.2179 25.6961 21.3802C25.7632 21.5427 25.7961 21.7175 25.7931 21.8936C25.7961 22.0671 25.7632 22.2391 25.6961 22.3988C25.6293 22.5583 25.5302 22.7017 25.4046 22.8196C25.2778 22.9432 25.1286 23.04 24.9649 23.1046C24.8012 23.1692 24.6269 23.2002 24.4514 23.1959V23.2019ZM23.3568 25.4423H25.5398V35.4732H23.3568V25.4423Z" fill="#017CBA"/>
<path d="M33.8085 35.4725V29.857C33.8085 28.0011 33.1633 27.0709 31.8725 27.0669C31.5614 27.0621 31.2528 27.1289 30.9706 27.262C30.6884 27.3956 30.4396 27.5924 30.2425 27.8374C29.7913 28.3828 29.5565 29.0794 29.5837 29.7911V35.4725H27.4007V25.4419H29.5837V27.0492H29.6188C29.9195 26.4711 30.3737 25.9911 30.9307 25.6634C31.4876 25.3358 32.124 25.1741 32.767 25.1969C34.9206 25.1969 35.9977 26.5689 35.9977 29.313V35.4725H33.8085Z" fill="#017CBA"/>
<path d="M42.9211 35.3701C42.3944 35.6174 41.8182 35.7359 41.2384 35.7169C39.3358 35.7169 38.3865 34.6593 38.3905 32.5447V27.2631H36.7841V25.471H38.3905V23.1352L40.5849 22.436V25.4232H42.9387V27.2153H40.5849V32.0723C40.5375 32.5535 40.6538 33.0365 40.9145 33.4408C41.047 33.5828 41.2099 33.6925 41.3903 33.7619C41.5706 33.8313 41.7642 33.8583 41.956 33.8406C42.3005 33.8393 42.6367 33.7331 42.9211 33.5363V35.3701Z" fill="#017CBA"/>
<path d="M45.3965 31.1229C45.5079 32.9868 46.4731 33.925 48.3089 33.925C49.3526 33.9289 50.3695 33.5915 51.21 32.9629V34.875C50.1654 35.473 48.9778 35.7645 47.7796 35.7172C47.1468 35.7543 46.5139 35.6513 45.9245 35.4147C45.335 35.1785 44.8035 34.8149 44.3664 34.3491C43.5084 33.2836 43.0778 31.9293 43.1603 30.5555C43.0927 29.118 43.5874 27.711 44.5371 26.6424C44.9488 26.1825 45.4513 25.8161 46.0122 25.5668C46.5727 25.3177 47.1792 25.1916 47.791 25.1966C48.3726 25.1625 48.9537 25.2601 49.4931 25.4822C50.0324 25.7044 50.5165 26.0455 50.9098 26.4814C51.6923 27.4735 52.0864 28.7248 52.0162 29.9942V31.1229H45.3965ZM49.8332 29.4205C49.8332 27.7915 49.1503 26.975 47.7853 26.971C47.4987 26.9701 47.2148 27.0289 46.9519 27.1439C46.6886 27.2589 46.4516 27.4279 46.2554 27.6402C45.7959 28.1316 45.5027 28.7597 45.4197 29.4324L49.8332 29.4205Z" fill="#017CBA"/>
<path d="M60.2893 35.0484C59.4484 35.5208 58.4964 35.7521 57.5357 35.7176C56.8901 35.7442 56.2467 35.6318 55.6476 35.3877C55.0481 35.144 54.506 34.7738 54.0579 34.3014C53.1692 33.3305 52.6952 32.0416 52.7399 30.7169C52.7026 29.9822 52.8102 29.2471 53.0555 28.5549C53.3009 27.8623 53.68 27.2267 54.1698 26.6844C54.6662 26.1827 55.26 25.7907 55.9131 25.5337C56.5666 25.2767 57.2653 25.1598 57.9649 25.191C58.7791 25.1636 59.5875 25.34 60.3187 25.7046V27.8494C59.681 27.3346 58.8914 27.0528 58.0768 27.0489C57.6647 27.0351 57.2544 27.1121 56.8743 27.2753C56.4942 27.4381 56.1536 27.6831 55.8762 27.9927C55.2798 28.6885 54.9739 29.593 55.023 30.5139C54.9739 31.4069 55.2622 32.2849 55.8289 32.9691C56.1115 33.2712 56.4551 33.5074 56.8357 33.6622C57.2166 33.817 57.6261 33.886 58.0356 33.8653C58.8616 33.8369 59.6573 33.5415 60.3068 33.0231L60.2893 35.0484Z" fill="#017CBA"/>
<path d="M67.6367 35.4731V29.7917C67.6367 27.9636 67.0069 27.0494 65.7477 27.0494C65.4326 27.041 65.1197 27.106 64.8339 27.2409C64.5482 27.3758 64.2967 27.5762 64.1001 27.8261C63.6652 28.3613 63.437 29.0385 63.4589 29.732V35.4731H61.2759V20.6274H63.4589V27.0136H63.5002C63.8021 26.4576 64.2489 25.9966 64.7918 25.6806C65.3343 25.3646 65.9518 25.2057 66.5772 25.2214C67.035 25.1924 67.4932 25.2722 67.9154 25.4548C68.3372 25.6373 68.7111 25.9176 69.0073 26.2731C69.6297 27.1564 69.9369 28.229 69.8785 29.314V35.4731H67.6367Z" fill="#017CBA"/>
</svg>
