<svg width="130" height="56" viewBox="0 0 130 56" fill="none" xmlns="http://www.w3.org/2000/svg">
<g clip-path="url(#clip0_43_1114)">
<path d="M93.6972 14.8465V11.2831C93.6972 9.69414 94.4454 9.00641 96.1727 9.00641H99.363C101.093 9.00641 101.838 9.69414 101.838 11.2831V14.8465C101.838 16.4383 101.093 17.126 99.363 17.126H96.1727C93.5831 17.1232 93.6972 14.8465 93.6972 14.8465ZM95.8222 15.9419C95.8806 15.9419 95.9362 15.953 95.9919 15.953H99.5549C99.6105 15.953 99.6689 15.9419 99.7135 15.9419C100.437 15.8975 100.651 15.6701 100.651 14.9269V11.2276C100.651 10.4734 100.437 10.2349 99.7218 10.1905C99.6662 10.1905 99.6105 10.1794 99.5521 10.1794H95.9891C95.9307 10.1794 95.875 10.1905 95.8194 10.1905C95.0962 10.2349 94.8709 10.4734 94.8709 11.2276V14.9047C94.8737 15.659 95.099 15.8947 95.8222 15.9419Z" fill="#ED1C24"/>
<path d="M84.1206 17.1235V9.00675H85.2972V12.5036H91.077V9.00675H92.2647V17.1235H91.077V13.6738H85.2972V17.1235H84.1206Z" fill="#ED1C24"/>
<path d="M111.412 9.00664H110.225V15.7008C110.225 15.7008 110.225 15.7008 110.222 15.7008C110.222 15.7008 104.742 9.0621 104.731 9.05101C104.575 8.88739 104.359 8.78756 104.117 8.78756C103.646 8.78756 103.268 9.16747 103.268 9.63335C103.268 9.64722 103.268 17.1207 103.268 17.1207H104.445V10.5596L109.646 16.8323C109.941 17.1345 110.138 17.2981 110.461 17.312C110.494 17.3175 110.528 17.3203 110.564 17.3203C111.034 17.3203 111.412 16.9404 111.412 16.4718C111.412 16.4385 111.412 9.00664 111.412 9.00664Z" fill="#ED1C24"/>
<path d="M112.845 15.0268V11.1361C112.845 9.7385 113.579 9.00364 115.017 9.00364H121V10.1767H114.917C114.859 10.1767 114.814 10.1877 114.769 10.1877C114.216 10.2543 114.024 10.4567 114.024 11.0557V15.0961C114.024 15.1543 114.035 15.2098 114.046 15.2652C114.113 15.7062 114.297 15.8864 114.669 15.953H114.984H118.944C119.453 15.953 119.734 15.7283 119.804 15.2431C119.815 15.2098 119.815 15.1654 119.815 15.1183V12.5033H120.992V14.9963C120.992 15.4899 120.947 15.7616 120.811 16.0334C120.427 16.8237 119.896 17.126 118.944 17.126H114.995C114.508 17.126 114.249 17.0705 113.966 16.9346C113.151 16.527 112.845 15.9862 112.845 15.0268Z" fill="#ED1C24"/>
<path d="M120.989 13.6514H117.253V12.4811H120.989V13.6514Z" fill="#ED1C24"/>
<path d="M112.845 24.8129V20.9223C112.845 19.5246 113.579 18.7925 115.017 18.7925H121V19.9656H114.917C114.859 19.9656 114.814 19.9766 114.769 19.9766C114.216 20.0432 114.024 20.2456 114.024 20.8446V24.8822C114.024 24.9405 114.035 24.9959 114.046 25.0514C114.113 25.4895 114.297 25.6698 114.669 25.7391H114.984H118.944C119.453 25.7391 119.734 25.5145 119.804 25.0292C119.815 24.9959 119.815 24.9515 119.815 24.9044V22.2894H120.992V24.7796C120.992 25.276 120.947 25.5478 120.811 25.8167C120.427 26.6071 119.896 26.9121 118.944 26.9121H114.995C114.508 26.9121 114.249 26.8539 113.966 26.718C113.151 26.3131 112.845 25.7724 112.845 24.8129Z" fill="#ED1C24"/>
<path d="M120.989 23.4375H117.253V22.2673H120.989V23.4375Z" fill="#ED1C24"/>
<path d="M93.6972 24.6326V21.0692C93.6972 19.4803 94.4426 18.7925 96.1754 18.7925H99.363C101.093 18.7925 101.838 19.4803 101.838 21.0692V24.6326C101.838 26.2216 101.093 26.9121 99.363 26.9121H96.1754C93.5831 26.9121 93.6972 24.6326 93.6972 24.6326ZM95.825 25.728C95.8834 25.728 95.939 25.7391 95.9946 25.7391H99.5577C99.6133 25.7391 99.6717 25.728 99.7162 25.728C100.439 25.6836 100.654 25.4562 100.654 24.7131V21.0138C100.654 20.2567 100.439 20.021 99.7246 19.9766C99.6689 19.9766 99.6133 19.9656 99.5549 19.9656H95.9919C95.9362 19.9656 95.8806 19.9766 95.8222 19.9766C95.099 20.021 94.8737 20.2567 94.8737 21.0138V24.6881C94.8737 25.4452 95.1018 25.6836 95.825 25.728Z" fill="#ED1C24"/>
<path d="M111.412 18.7928H110.225V25.487H110.222C110.222 25.487 104.742 18.8482 104.731 18.8371C104.575 18.6763 104.359 18.5737 104.117 18.5737C103.646 18.5737 103.268 18.9536 103.268 19.4195C103.268 19.4333 103.268 26.9096 103.268 26.9096H104.445V20.3457L109.646 26.6212C109.941 26.9234 110.136 27.087 110.458 27.1009C110.492 27.1037 110.528 27.1064 110.561 27.1064C111.031 27.1064 111.41 26.7265 111.41 26.2607C111.412 26.2218 111.412 18.7928 111.412 18.7928Z" fill="#ED1C24"/>
<path d="M85.2972 26.9097H84.1206V18.7901H85.2972V26.9097Z" fill="#ED1C24"/>
<path d="M89.7336 23.0882C89.2413 22.4781 88.8602 22.2341 88.1926 22.2341H84.6964V23.4099H88.1926C88.468 23.4099 88.6877 23.6317 88.799 23.7926L91.3635 26.9067H92.9183L89.7336 23.0882Z" fill="#ED1C24"/>
<path d="M89.7336 22.5557C89.2413 23.1658 88.8602 23.4126 88.1926 23.4126H84.6964V22.234H88.1926C88.468 22.234 88.6877 22.0122 88.799 21.8514L91.3218 18.7899H92.8766L89.7336 22.5557Z" fill="#ED1C24"/>
<g clip-path="url(#clip1_43_1114)">
<path d="M108.63 40.2896C107.239 39.1218 106.577 38.7066 105.09 38.7066C103.653 38.7066 102.101 39.5014 100.886 40.2718C100.273 40.6603 99.6318 41.0311 98.9281 41.1754C98.3803 41.2886 97.5297 41.3286 97.1021 40.7136C97.8993 42.8272 99.614 42.725 101.3 41.8881C102.91 41.0866 104.892 38.529 107.7 40.445C106.395 39.7368 104.8 40.0653 102.758 41.6883C100.54 43.4488 99.3156 43.1868 98.6965 42.8494C100.54 44.5589 103.164 42.1856 104.994 41.4507C106.112 41.0022 107.297 41.0822 108.432 41.4063C109.55 41.726 111.249 42.3565 112.792 41.1288C111.392 41.6394 109.806 41.2775 108.63 40.2896ZM106.58 42.7095C105.883 42.7828 105.562 42.7717 104.912 43.0647C105.813 42.3521 106.493 41.8747 107.579 41.8237C104.811 40.6981 103.083 44.7875 100.229 43.7241C101.892 44.8985 103.239 44.2347 104.241 43.7241C104.814 43.5043 105.493 43.4066 105.876 43.3866C105.114 44.1837 104.099 44.8497 103.043 44.883C104.834 45.3848 106.047 44.4012 107.15 43.5176C107.873 42.9382 108.379 42.2832 109.526 42.3498C109.641 42.3565 109.786 42.3543 109.857 42.3565C109.82 42.3476 109.735 42.3188 109.699 42.3099C108.528 41.9458 107.437 42.1101 106.58 42.7095Z" fill="url(#paint0_linear_43_1114)"/>
<path d="M117.803 40.1832C117.286 40.0078 116.925 39.8657 116.344 39.9634C116.638 39.7747 117.524 39.6615 118.063 39.7592C115.028 38.3072 113.567 42.8607 110.069 42.4011C111.588 43.1737 113.347 42.5476 114.596 41.5686C116.168 40.3364 116.899 42.1991 118.255 41.1956C117.767 41.3621 117.371 41.0402 116.923 40.7849C116.511 40.5473 116.044 40.3652 115.654 40.6627C116.591 39.7148 117.903 41.5153 118.987 40.2942C118.618 40.4785 118.155 40.3186 117.803 40.1832ZM120.571 36.3912C120.613 36.873 120.192 37.0328 119.827 37.115C118.999 37.2993 117.638 36.9152 117.202 36.5755C118.464 35.7674 115.796 34.6262 114.725 35.1724C116.164 35.2501 115.783 36.1426 114.478 36.1914C113.465 36.2292 112.066 35.8318 111.474 34.8105C111.516 35.8229 112.144 36.5799 113.069 36.8197C112.118 37.1216 109.198 36.8486 108.288 35.2257C108.499 37.1017 110.532 38.4071 112.082 38.3005C110.909 39.1508 109.731 38.6846 108.379 38.1429C107.058 37.6212 105.858 36.8952 104.469 37.9231C106.279 37.4524 107.475 38.6158 108.704 39.6015C109.962 40.605 110.744 41.1045 112.258 40.9003C114.042 40.6605 115.233 38.9888 117.3 38.9888C118.284 38.9888 118.798 39.5438 119.433 39.5438C119.696 39.5505 119.956 39.4661 120.219 39.2152C119.446 39.4705 119.152 38.8889 119.56 38.9599C120.279 39.0865 120.811 38.5314 120.943 38.0075C121.05 37.599 121.05 37.0439 120.571 36.3912ZM115.955 38.0807C115.718 38.0807 115.529 37.892 115.529 37.6567C115.529 37.4214 115.718 37.2304 115.955 37.2304C116.191 37.2304 116.382 37.4214 116.382 37.6567C116.38 37.8898 116.191 38.0807 115.955 38.0807Z" fill="url(#paint1_linear_43_1114)"/>
<path d="M16.0275 33.1011C16.2591 39.9546 22.1491 50.2271 30.6623 46.5728C33.5572 45.3295 36.0512 41.7618 37.5387 40.8271C41.193 38.5293 46.1031 42.5122 49.8242 44.3993C54.1398 46.6017 59.168 46.6838 63.4791 44.3371C68.3693 41.8062 73.1147 38.6847 77.9179 36.0872C79.6549 35.1481 81.4363 34.3377 83.318 33.7272C89.6845 31.5448 95.5411 31.4671 101.778 34.3399C102.039 34.4332 102.865 34.7285 103.687 35.1214C105.332 35.9073 107.947 37.2039 108.352 37.3549C108.216 37.1884 107.41 36.3092 106.372 35.7031C105.651 35.2813 104.883 34.7906 104.139 34.4021C103.288 33.9536 102.547 33.6029 102.11 33.4541C96.3494 30.9542 90.573 30.3482 84.329 32.0687C81.7592 32.6748 79.3275 33.6739 76.9738 34.8439C72.1638 37.235 67.5698 40.0123 62.7131 42.4079C59.119 43.9664 54.8435 44.3993 51.0824 43.156C46.2234 41.6708 40.8011 36.751 36.2115 40.5874C28.0658 47.3965 20.7863 46.7082 16.2569 33.0567C16.1789 32.8214 16.0186 32.8436 16.0275 33.1011Z" fill="url(#paint2_linear_43_1114)"/>
<path d="M111.868 31.5603C102.736 31.1229 91.9002 35.3678 87.4443 36.4201C83.9259 37.2505 81.1735 37.9698 79.303 37.6434C76.0585 37.0773 75.8959 35.0548 73.7248 33.4363C73.3952 33.1898 73.0835 32.9612 72.6826 32.859C71.1973 32.2374 68.8881 33.0877 67.8816 32.9812C67.8192 32.9745 67.7591 32.9634 67.699 32.9501C66.5388 32.3928 66.2337 31.3294 65.0045 30.9364C63.6773 30.5102 62.0473 30.8809 60.5976 31.4137C59.7892 31.7112 59.1791 31.8467 58.5044 31.6735C58.2906 31.5869 58.0701 31.4737 57.8274 31.3205C56.6516 30.579 55.5538 29.1359 55.0995 28.5187C54.839 28.1679 54.2222 27.1311 53.0909 27.0823C52.2291 27.0468 51.8929 27.3043 51.3562 27.7905C51.0311 28.0836 50.7639 28.1479 50.6169 28.1346C50.0624 28.0858 49.5926 27.8505 49.1962 28.3367C48.8599 28.7518 49.0403 29.6088 48.9935 30.1172C48.8666 31.4804 48.0204 32.2197 47.339 32.6792C46.4572 33.2742 45.7379 33.0455 44.4798 33.7982C43.7627 34.2266 44.1435 35.9805 42.3798 35.3744C38.8904 34.3221 35.47 33.7182 32.4593 34.3421C26.674 35.5432 21.8462 39.1975 15.9273 39.9568C13.0502 40.3253 10.5094 39.9213 7.09342 38.3872C6.69704 38.2051 6.4031 38.2051 6.5612 38.3472C9.68991 41.1379 13.4867 42.1969 17.1788 41.7107C23.2491 40.9092 28.3686 35.763 34.41 35.4055C38.5541 35.0259 40.2131 35.8962 43.3975 36.691C43.3975 36.691 44.021 36.8797 44.2793 36.4934C44.5399 36.1071 44.5644 35.7963 44.8271 35.6386C46.0898 34.8816 46.7712 35.1413 47.6574 34.5441C48.3411 34.0846 49.0782 33.3408 49.3164 31.971C49.4055 31.467 49.2608 30.5213 49.5213 30.1838C49.9043 29.6865 50.3898 29.9307 50.9465 29.9818C51.0957 29.9951 51.3651 29.9307 51.6902 29.6377C52.2291 29.1492 52.5654 28.9272 53.4316 28.9272C54.6074 28.9272 55.1886 30.0173 55.4469 30.3703C55.9034 30.9897 57.0057 32.4394 58.1881 33.1832C58.4286 33.3342 58.6536 33.4496 58.8673 33.5362C59.5443 33.7094 60.1567 33.5739 60.9695 33.2742C62.4236 32.7369 64.0714 32.415 65.3385 32.7791C66.4987 33.1121 67.1846 34.4575 68.0976 34.8172C68.1577 34.8305 68.2178 34.8416 68.2802 34.8483C69.2911 34.9548 71.6093 34.1001 73.1013 34.7262C73.4999 34.8283 73.8161 35.057 74.1479 35.3056C75.7445 36.4956 76.5551 37.548 78.1562 38.2473C78.3054 38.285 78.4746 38.3783 78.6238 38.4182C82.0932 39.3485 85.1507 38.507 88.6334 37.7722C93.8732 36.6666 104.399 32.3684 111.982 32.4039C117.409 32.4306 119.965 34.3643 120.502 36.0205C120.234 33.8359 117.899 31.8511 111.868 31.5603Z" fill="url(#paint3_linear_43_1114)"/>
<path d="M93.2653 38.4358C88.2237 37.1637 84.6274 34.1221 81.3606 30.9873C77.025 26.8245 72.3687 22.7484 66.3183 21.4296C62.9892 20.7037 59.4953 20.6371 56.0972 21.2054C51.7638 21.9358 47.5996 23.7075 43.7761 25.8566C43.1348 26.2118 42.5001 26.5759 41.8677 26.94C37.4407 29.4865 33.281 32.1129 28.0101 31.9997C22.0088 31.8709 18.8422 23.5809 12.9456 25.0063C12.8788 25.0218 12.9478 25.1372 13.2128 25.1639C15.8315 25.4347 16.4684 26.4116 18.2388 28.0301C20.4589 30.0593 22.7013 31.7776 26.0794 32.659C32.4682 34.3263 38.0843 31.9197 43.2038 28.6939C44.7359 27.7281 51.9553 23.8607 55.85 22.8017C59.5443 21.796 63.3121 21.6161 66.8372 22.4398C72.4577 23.7586 76.3102 28.2166 80.3764 31.9819C81.9975 33.4827 83.6654 34.9435 85.1774 36.1402C90.4751 40.3429 95.138 38.4558 96.993 40.4517C96.4875 39.4171 95.3162 38.9287 93.2653 38.4358Z" fill="url(#paint4_linear_43_1114)"/>
</g>
</g>
<defs>
<linearGradient id="paint0_linear_43_1114" x1="97.103" y1="41.8636" x2="112.793" y2="41.8636" gradientUnits="userSpaceOnUse">
<stop offset="0.25" stop-color="#A3238E"/>
<stop offset="0.6" stop-color="#D80B8C"/>
</linearGradient>
<linearGradient id="paint1_linear_43_1114" x1="104.47" y1="38.7785" x2="121" y2="38.7785" gradientUnits="userSpaceOnUse">
<stop offset="0.25" stop-color="#FAA61A"/>
<stop offset="0.6" stop-color="#ED1C24"/>
</linearGradient>
<linearGradient id="paint2_linear_43_1114" x1="16.0267" y1="39.2147" x2="108.35" y2="39.2147" gradientUnits="userSpaceOnUse">
<stop offset="0.0411" stop-color="#A6CE39"/>
<stop offset="0.0934" stop-color="#A6CE39"/>
<stop offset="0.6" stop-color="#00A651"/>
</linearGradient>
<linearGradient id="paint3_linear_43_1114" x1="6.51484" y1="34.4553" x2="120.504" y2="34.4553" gradientUnits="userSpaceOnUse">
<stop offset="0.25" stop-color="#FAA61A"/>
<stop offset="0.5899" stop-color="#ED1C24"/>
</linearGradient>
<linearGradient id="paint4_linear_43_1114" x1="75.353" y1="30.6401" x2="36.0337" y2="30.6401" gradientUnits="userSpaceOnUse">
<stop stop-color="#A3238E"/>
<stop offset="0.25" stop-color="#2E3192"/>
<stop offset="0.5" stop-color="#00AEEF"/>
</linearGradient>
<clipPath id="clip0_43_1114">
<rect width="114.485" height="38.5485" fill="white" transform="matrix(1 0 0 -1 6.5152 47.3359)"/>
</clipPath>
<clipPath id="clip1_43_1114">
<rect width="114.486" height="26.5105" fill="white" transform="matrix(1 0 0 -1 6.51447 47.3364)"/>
</clipPath>
</defs>
</svg>
